<svg width="24" height="13" viewBox="0 0 24 13" fill="none" xmlns="http://www.w3.org/2000/svg">
<path d="M0.75 0.25V13H23.25V0.25H0.75ZM10.3286 8.75688C10.3956 8.8307 10.4472 8.91713 10.4804 9.01113C10.5136 9.10512 10.5277 9.20479 10.5219 9.30431C10.5161 9.40382 10.4906 9.50118 10.4467 9.59071C10.4029 9.68023 10.3417 9.76012 10.2666 9.8257C10.1915 9.89127 10.1041 9.94123 10.0095 9.97264C9.91491 10.004 9.81499 10.0163 9.7156 10.0086C9.61622 10.001 9.51935 9.97359 9.43067 9.92807C9.34199 9.88254 9.26327 9.8198 9.19913 9.7435L6.1425 6.24475L9.19987 2.75725C9.26397 2.68054 9.34276 2.61742 9.4316 2.57159C9.52044 2.52577 9.61755 2.49817 9.71721 2.49041C9.81687 2.48265 9.91708 2.4949 10.0119 2.52643C10.1068 2.55795 10.1944 2.60813 10.2696 2.674C10.3448 2.73986 10.4061 2.8201 10.4498 2.90999C10.4935 2.99988 10.5189 3.0976 10.5243 3.19742C10.5297 3.29723 10.5151 3.39713 10.4814 3.49123C10.4477 3.58533 10.3955 3.67174 10.3279 3.74537L8.13525 6.24625L10.3286 8.75688ZM14.8286 9.7435C14.7645 9.8198 14.6858 9.88254 14.5971 9.92807C14.5084 9.97359 14.4115 10.001 14.3121 10.0086C14.2128 10.0163 14.1128 10.004 14.0182 9.97264C13.9236 9.94123 13.8362 9.89127 13.7612 9.8257C13.6861 9.76012 13.6248 9.68023 13.581 9.59071C13.5372 9.50118 13.5116 9.40382 13.5058 9.30431C13.5 9.20479 13.5142 9.10512 13.5474 9.01113C13.5805 8.91713 13.6321 8.8307 13.6991 8.75688L15.8925 6.24625L13.6999 3.74387C13.6323 3.67024 13.5801 3.58383 13.5463 3.48973C13.5126 3.39563 13.498 3.29573 13.5035 3.19592C13.5089 3.0961 13.5342 2.99838 13.5779 2.90849C13.6217 2.8186 13.683 2.73836 13.7581 2.6725C13.8333 2.60663 13.9209 2.55645 14.0158 2.52493C14.1107 2.4934 14.2109 2.48115 14.3105 2.48891C14.4102 2.49667 14.5073 2.52427 14.5962 2.57009C14.685 2.61592 14.7638 2.67904 14.8279 2.75575L17.8853 6.24325L14.8286 9.7435Z" fill="#A13FB9"/>
</svg>
